<svg xmlns="http://www.w3.org/2000/svg" xmlns:xlink="http://www.w3.org/1999/xlink" xml:space="preserve" width="1380"
    height="1000" viewBox="0 0 1380 1000">
    <defs>
        <linearGradient id="b">
            <stop offset=".337" style="stop-color:#c1d0e5;stop-opacity:1" />
            <stop offset=".919" style="stop-color:#829ac3;stop-opacity:1" />
            <stop offset="1" style="stop-color:#829ac3;stop-opacity:1" />
        </linearGradient>
        <linearGradient id="c">
            <stop offset="0" style="stop-color:#c1d0e5;stop-opacity:1" />
            <stop offset=".389" style="stop-color:#829ac3;stop-opacity:1" />
            <stop offset=".84" style="stop-color:#c1d0e5;stop-opacity:1" />
            <stop offset="1" style="stop-color:#f1f1f3;stop-opacity:1" />
        </linearGradient>
        <linearGradient id="a">
            <stop offset="0" style="stop-color:#ebf4f5;stop-opacity:1" />
            <stop offset="1" style="stop-color:#b5c6e0;stop-opacity:1" />
        </linearGradient>
        <linearGradient xlink:href="#a" id="g" x1="182.563" x2="182.563" y1="-66.146" y2="283.104"
            gradientTransform="matrix(3.77953 0 0 3.97845 0 -1.579)" gradientUnits="userSpaceOnUse" />
        <linearGradient xlink:href="#b" id="e" x1="198.438" x2="198.438" y1="239.49" y2="220.885"
            gradientTransform="scale(3.77953)" gradientUnits="userSpaceOnUse" />
        <linearGradient xlink:href="#b" id="d" x1="166.688" x2="166.688" y1="239.49" y2="220.885"
            gradientTransform="scale(3.77953)" gradientUnits="userSpaceOnUse" />
        <linearGradient xlink:href="#c" id="f" x1="182.581" x2="182.581" y1="298.518" y2="192.648"
            gradientTransform="scale(3.77953)" gradientUnits="userSpaceOnUse" />
    </defs>
    <path d="m604.842 915.158 50.316-90.316"
        style="fill:#070013;fill-opacity:1;stroke:url(#d);stroke-width:20;stroke-linecap:round;stroke-dasharray:none;paint-order:markers stroke fill" />
    <path d="m775.158 915.158-50.316-90.316"
        style="fill:#070013;fill-opacity:1;stroke:url(#e);stroke-width:20;stroke-linecap:round;stroke-dasharray:none;paint-order:markers stroke fill" />
    <path d="M506.197 928.187h367.745"
        style="fill:#070013;fill-opacity:1;stroke:url(#f);stroke-width:32.393;stroke-linecap:round;stroke-linejoin:round;stroke-dasharray:none;paint-order:markers stroke fill" />
    <rect width="1320" height="800" x="30" y="30" rx="20"
        style="fill:url(#g);stroke-width:11.8723;stroke-linecap:round;paint-order:markers stroke fill" />
    <path d="M50 50h1280v720H50z"
        style="fill:#000;stroke-width:8.15652;stroke-linecap:round;paint-order:markers stroke fill" />
    <path d="M697 47v400h150V47Z" style="stroke-width:50.0001" transform="translate(661.05 783.238)scale(.0375)" />
    <path
        d="M595.224 623.775c-97.632-97.63-97.632-255.92 0-353.551L489.157 164.158c-156.21 156.209-156.21 409.477 0 565.687 156.209 156.205 409.477 156.205 565.687 0 156.205-156.21 156.205-409.478 0-565.687l-106.07 106.066c97.635 97.63 97.635 255.922 0 353.551-97.63 97.635-255.92 97.635-353.551 0"
        style="stroke-width:50.0001" transform="translate(661.05 783.238)scale(.0375)" />
</svg>